# ============================================================================
# SPHERE - Quadric Surface Test
# ============================================================================
#
# DESCRIPTION:
#   A sphere approximated using an icosphere (subdivided icosahedron).
#   The sphere is the simplest quadric surface and serves as a fundamental
#   test case for smooth shading and normal interpolation.
#
# QUADRIC CLASSIFICATION:
#   Type: Ellipsoid (special case with equal radii)
#   Topology: Closed, bounded surface
#   Gaussian Curvature: Positive (K = 1/r² everywhere)
#
# MATHEMATICAL DEFINITION:
#   Implicit form:    x² + y² + z² = r²
#   Parametric form:  x = r·sin(θ)·cos(φ)
#                     y = r·sin(θ)·sin(φ)
#                     z = r·cos(θ)
#   Where: θ ∈ [0, π], φ ∈ [0, 2π]
#
# QUADRIC COEFFICIENTS (General form Ax² + By² + Cz² + ... + J = 0):
#   A = B = C = 1
#   D = E = F = G = H = I = 0
#   J = -r² = -1
#   Matrix form: diag(1, 1, 1, -1)
#
# GEOMETRY:
#   - Radius: 1.0 unit
#   - Center: Origin (0, 0, 0)
#   - Surface area: 4πr² ≈ 12.566
#   - Volume: (4/3)πr³ ≈ 4.189
#
# NORMAL CALCULATION:
#   For a sphere centered at origin, the outward normal at point (x,y,z) is:
#   N = normalize(x, y, z) = (x, y, z) / r
#   This is why the vertex positions equal the vertex normals for unit sphere.
#
# MESH APPROXIMATION:
#   Uses icosphere method (subdivided icosahedron) for uniform triangle
#   distribution. This is superior to UV-sphere which has pole singularities.
#
# OBJ FEATURES TESTED:
#   - Smooth shading (per-vertex normals)
#   - Large vertex/normal counts
#   - Face format with normals (f v//vn)
#
# ============================================================================

mtllib ./quadric_materials.mtl

# Icosphere vertices (12 vertices for base icosahedron, then subdivided)
# Golden ratio: phi = (1 + sqrt(5)) / 2 ≈ 1.618
# Normalized to unit sphere

v  0.000000  1.000000  0.000000
v  0.894427  0.447214  0.000000
v  0.276393  0.447214  0.850651
v -0.723607  0.447214  0.525731
v -0.723607  0.447214 -0.525731
v  0.276393  0.447214 -0.850651
v  0.723607 -0.447214  0.525731
v -0.276393 -0.447214  0.850651
v -0.894427 -0.447214  0.000000
v -0.276393 -0.447214 -0.850651
v  0.723607 -0.447214 -0.525731
v  0.000000 -1.000000  0.000000

# Subdivision vertices (level 1)
v  0.525731  0.850651  0.000000
v  0.162460  0.850651  0.500000
v -0.425325  0.850651  0.309017
v -0.425325  0.850651 -0.309017
v  0.162460  0.850651 -0.500000
v  0.688191  0.525731  0.500000
v -0.262866  0.525731  0.809017
v -0.850651  0.525731  0.000000
v -0.262866  0.525731 -0.809017
v  0.688191  0.525731 -0.500000
v  0.850651 -0.525731  0.000000
v  0.262866 -0.525731  0.809017
v -0.688191 -0.525731  0.500000
v -0.688191 -0.525731 -0.500000
v  0.262866 -0.525731 -0.809017
v  0.425325 -0.850651  0.309017
v -0.162460 -0.850651  0.500000
v -0.525731 -0.850651  0.000000
v -0.162460 -0.850651 -0.500000
v  0.425325 -0.850651 -0.309017
v  0.951057  0.000000  0.309017
v  0.587785  0.000000  0.809017
v  0.000000  0.000000  1.000000
v -0.587785  0.000000  0.809017
v -0.951057  0.000000  0.309017
v -0.951057  0.000000 -0.309017
v -0.587785  0.000000 -0.809017
v  0.000000  0.000000 -1.000000
v  0.587785  0.000000 -0.809017
v  0.951057  0.000000 -0.309017

# Normals (for sphere, normal = normalized position)
vn  0.000000  1.000000  0.000000
vn  0.894427  0.447214  0.000000
vn  0.276393  0.447214  0.850651
vn -0.723607  0.447214  0.525731
vn -0.723607  0.447214 -0.525731
vn  0.276393  0.447214 -0.850651
vn  0.723607 -0.447214  0.525731
vn -0.276393 -0.447214  0.850651
vn -0.894427 -0.447214  0.000000
vn -0.276393 -0.447214 -0.850651
vn  0.723607 -0.447214 -0.525731
vn  0.000000 -1.000000  0.000000
vn  0.525731  0.850651  0.000000
vn  0.162460  0.850651  0.500000
vn -0.425325  0.850651  0.309017
vn -0.425325  0.850651 -0.309017
vn  0.162460  0.850651 -0.500000
vn  0.688191  0.525731  0.500000
vn -0.262866  0.525731  0.809017
vn -0.850651  0.525731  0.000000
vn -0.262866  0.525731 -0.809017
vn  0.688191  0.525731 -0.500000
vn  0.850651 -0.525731  0.000000
vn  0.262866 -0.525731  0.809017
vn -0.688191 -0.525731  0.500000
vn -0.688191 -0.525731 -0.500000
vn  0.262866 -0.525731 -0.809017
vn  0.425325 -0.850651  0.309017
vn -0.162460 -0.850651  0.500000
vn -0.525731 -0.850651  0.000000
vn -0.162460 -0.850651 -0.500000
vn  0.425325 -0.850651 -0.309017
vn  0.951057  0.000000  0.309017
vn  0.587785  0.000000  0.809017
vn  0.000000  0.000000  1.000000
vn -0.587785  0.000000  0.809017
vn -0.951057  0.000000  0.309017
vn -0.951057  0.000000 -0.309017
vn -0.587785  0.000000 -0.809017
vn  0.000000  0.000000 -1.000000
vn  0.587785  0.000000 -0.809017
vn  0.951057  0.000000 -0.309017

usemtl metallic_gold

# Top cap triangles
f 1//1 14//14 13//13
f 1//1 15//15 14//14
f 1//1 16//16 15//15
f 1//1 17//17 16//16
f 1//1 13//13 17//17

# Upper ring
f 13//13 14//14 18//18
f 14//14 3//3 18//18
f 14//14 15//15 19//19
f 14//14 19//19 3//3
f 15//15 4//4 19//19
f 15//15 16//16 20//20
f 15//15 20//20 4//4
f 16//16 5//5 20//20
f 16//16 17//17 21//21
f 16//16 21//21 5//5
f 17//17 6//6 21//21
f 17//17 13//13 22//22
f 17//17 22//22 6//6
f 13//13 2//2 22//22
f 13//13 18//18 2//2

# Middle band
f 2//2 18//18 33//33
f 18//18 3//3 34//34
f 18//18 34//34 33//33
f 3//3 19//19 35//35
f 19//19 4//4 36//36
f 19//19 36//36 35//35
f 4//4 20//20 37//37
f 20//20 5//5 38//38
f 20//20 38//38 37//37
f 5//5 21//21 39//39
f 21//21 6//6 40//40
f 21//21 40//40 39//39
f 6//6 22//22 41//41
f 22//22 2//2 42//42
f 22//22 42//42 41//41
f 2//2 33//33 42//42

# Lower ring
f 33//33 34//34 7//7
f 34//34 35//35 24//24
f 34//34 24//24 7//7
f 35//35 36//36 8//8
f 35//35 8//8 24//24
f 36//36 37//37 25//25
f 36//36 25//25 8//8
f 37//37 38//38 9//9
f 37//37 9//9 25//25
f 38//38 39//39 26//26
f 38//38 26//26 9//9
f 39//39 40//40 10//10
f 39//39 10//10 26//26
f 40//40 41//41 27//27
f 40//40 27//27 10//10
f 41//41 42//42 11//11
f 41//41 11//11 27//27
f 42//42 33//33 23//23
f 42//42 23//23 11//11
f 33//33 7//7 23//23

# Bottom cap
f 12//12 28//28 29//29
f 12//12 29//29 30//30
f 12//12 30//30 31//31
f 12//12 31//31 32//32
f 12//12 32//32 28//28
f 7//7 24//24 28//28
f 24//24 8//8 29//29
f 24//24 29//29 28//28
f 8//8 25//25 30//30
f 25//25 9//9 30//30
f 8//8 30//30 29//29
f 9//9 26//26 31//31
f 26//26 10//10 31//31
f 9//9 31//31 30//30
f 10//10 27//27 32//32
f 27//27 11//11 32//32
f 10//10 32//32 31//31
f 11//11 23//23 28//28
f 23//23 7//7 28//28
f 11//11 28//28 32//32

